<svg width="563" height="183" viewBox="0 0 563 183" fill="none" xmlns="http://www.w3.org/2000/svg">
<path d="M7.72727 138V68.1818H27.0909V138H7.72727ZM17.4545 59.1818C14.5758 59.1818 12.1061 58.2273 10.0455 56.3182C8.01515 54.3788 7 52.0606 7 49.3636C7 46.697 8.01515 44.4091 10.0455 42.5C12.1061 40.5606 14.5758 39.5909 17.4545 39.5909C20.3333 39.5909 22.7879 40.5606 24.8182 42.5C26.8788 44.4091 27.9091 46.697 27.9091 49.3636C27.9091 52.0606 26.8788 54.3788 24.8182 56.3182C22.7879 58.2273 20.3333 59.1818 17.4545 59.1818ZM39.4205 61.1364V44.9091H115.875V61.1364H87.375V138H67.9205V61.1364H39.4205ZM138.511 139.318C134.057 139.318 130.087 138.545 126.602 137C123.117 135.424 120.36 133.106 118.33 130.045C116.33 126.955 115.33 123.106 115.33 118.5C115.33 114.621 116.042 111.364 117.466 108.727C118.89 106.091 120.83 103.97 123.284 102.364C125.739 100.758 128.527 99.5455 131.648 98.7273C134.799 97.9091 138.102 97.3333 141.557 97C145.617 96.5758 148.89 96.1818 151.375 95.8182C153.86 95.4242 155.663 94.8485 156.784 94.0909C157.905 93.3333 158.466 92.2121 158.466 90.7273V90.4545C158.466 87.5758 157.557 85.3485 155.739 83.7727C153.951 82.197 151.405 81.4091 148.102 81.4091C144.617 81.4091 141.845 82.1818 139.784 83.7273C137.723 85.2424 136.36 87.1515 135.693 89.4545L117.784 88C118.693 83.7576 120.481 80.0909 123.148 77C125.814 73.8788 129.254 71.4848 133.466 69.8182C137.708 68.1212 142.617 67.2727 148.193 67.2727C152.072 67.2727 155.784 67.7273 159.33 68.6364C162.905 69.5455 166.072 70.9545 168.83 72.8636C171.617 74.7727 173.814 77.2273 175.42 80.2273C177.027 83.197 177.83 86.7576 177.83 90.9091V138H159.466V128.318H158.92C157.799 130.5 156.299 132.424 154.42 134.091C152.542 135.727 150.284 137.015 147.648 137.955C145.011 138.864 141.966 139.318 138.511 139.318ZM144.057 125.955C146.905 125.955 149.42 125.394 151.602 124.273C153.784 123.121 155.496 121.576 156.739 119.636C157.981 117.697 158.602 115.5 158.602 113.045V105.636C157.996 106.03 157.163 106.394 156.102 106.727C155.072 107.03 153.905 107.318 152.602 107.591C151.299 107.833 149.996 108.061 148.693 108.273C147.39 108.455 146.208 108.621 145.148 108.773C142.875 109.106 140.89 109.636 139.193 110.364C137.496 111.091 136.178 112.076 135.239 113.318C134.299 114.53 133.83 116.045 133.83 117.864C133.83 120.5 134.784 122.515 136.693 123.909C138.633 125.273 141.087 125.955 144.057 125.955ZM250.943 88.0909L233.216 89.1818C232.913 87.6667 232.261 86.303 231.261 85.0909C230.261 83.8485 228.943 82.8636 227.307 82.1364C225.701 81.3788 223.777 81 221.534 81C218.534 81 216.004 81.6364 213.943 82.9091C211.883 84.1515 210.852 85.8182 210.852 87.9091C210.852 89.5758 211.519 90.9848 212.852 92.1364C214.186 93.2879 216.473 94.2121 219.716 94.9091L232.352 97.4545C239.14 98.8485 244.201 101.091 247.534 104.182C250.867 107.273 252.534 111.333 252.534 116.364C252.534 120.939 251.186 124.955 248.489 128.409C245.822 131.864 242.155 134.561 237.489 136.5C232.852 138.409 227.504 139.364 221.443 139.364C212.201 139.364 204.837 137.439 199.352 133.591C193.898 129.712 190.701 124.439 189.761 117.773L208.807 116.773C209.383 119.591 210.777 121.742 212.989 123.227C215.201 124.682 218.034 125.409 221.489 125.409C224.883 125.409 227.61 124.758 229.67 123.455C231.761 122.121 232.822 120.409 232.852 118.318C232.822 116.561 232.08 115.121 230.625 114C229.17 112.848 226.928 111.97 223.898 111.364L211.807 108.955C204.989 107.591 199.913 105.227 196.58 101.864C193.277 98.5 191.625 94.2121 191.625 89C191.625 84.5151 192.837 80.6515 195.261 77.4091C197.716 74.1667 201.155 71.6667 205.58 69.9091C210.034 68.1515 215.246 67.2727 221.216 67.2727C230.034 67.2727 236.973 69.1364 242.034 72.8636C247.125 76.5909 250.095 81.6667 250.943 88.0909ZM282.273 117.909L282.318 94.6818H285.136L307.5 68.1818H329.727L299.682 103.273H295.091L282.273 117.909ZM264.727 138V44.9091H284.091V138H264.727ZM308.364 138L287.818 107.591L300.727 93.9091L331.045 138H308.364Z" fill="black"/>
<circle cx="17" cy="49" r="11" fill="#007AFF"/>
<rect x="380" width="183" height="183" rx="40" fill="#F8F8F8"/>
<rect x="396" y="17" width="150" height="150" rx="40" fill="black"/>
<rect x="396" y="17" width="150" height="150" rx="40" fill="black"/>
<rect x="415" y="35" width="113" height="113" rx="40" fill="white"/>
<path d="M449.5 89.5H435L464 133.5L507.5 60H494L464 112L449.5 89.5Z" fill="#007AFF" stroke="#007AFF" stroke-width="4"/>
</svg>
